<svg width="180" height="64" viewBox="0 0 180 64" fill="none" xmlns="http://www.w3.org/2000/svg">
<path fill-rule="evenodd" clip-rule="evenodd" d="M150.053 61.5065C150.08 60.7745 150.093 60.0389 150.093 59.3002C150.093 26.8875 123.73 0.611816 91.2098 0.611816C58.6893 0.611816 32.3262 26.8875 32.3262 59.3002C32.3262 60.0389 32.3399 60.7745 32.367 61.5065C33.5311 30.1162 59.4304 5.02448 91.2098 5.02448C122.989 5.02448 148.888 30.1162 150.053 61.5065Z" fill="white"/>
<path fill-rule="evenodd" clip-rule="evenodd" d="M150.053 63.5065C150.08 62.7745 150.093 62.0389 150.093 61.3002C150.093 28.8875 123.73 2.61182 91.2098 2.61182C58.6893 2.61182 32.3262 28.8875 32.3262 61.3002C32.3262 62.0389 32.3399 62.7745 32.367 63.5065C33.5311 32.1162 59.4304 7.02448 91.2098 7.02448C122.989 7.02448 148.888 32.1162 150.053 63.5065Z" fill="#0C0B11"/>
<path d="M7.23149 37.2395C7.20721 37.0943 7.15256 36.9309 7.06755 36.7493C6.99469 36.5557 6.87326 36.3802 6.70325 36.2228C6.54538 36.0534 6.33287 35.9142 6.06571 35.8053C5.79855 35.6842 5.47068 35.6237 5.08208 35.6237C4.54776 35.6237 4.11667 35.769 3.78879 36.0594C3.47306 36.3378 3.31519 36.6525 3.31519 37.0035C3.31519 37.3182 3.41234 37.5845 3.60664 37.8023C3.81308 38.0081 4.14096 38.1533 4.59027 38.238L6.32073 38.5648C6.94005 38.6738 7.48044 38.8553 7.94189 39.1095C8.40335 39.3515 8.79194 39.642 9.10767 39.9809C9.42341 40.3198 9.6602 40.7011 9.81807 41.1247C9.97594 41.5362 10.0549 41.9719 10.0549 42.4318C10.0549 42.9402 9.95165 43.4364 9.74521 43.9205C9.53877 44.4047 9.22911 44.8404 8.81623 45.2277C8.41549 45.6029 7.9176 45.9115 7.32257 46.1536C6.72753 46.3836 6.0475 46.4985 5.28245 46.4985C4.38383 46.4985 3.61271 46.3715 2.9691 46.1173C2.32549 45.851 1.79118 45.5182 1.36615 45.1188C0.941126 44.7194 0.619322 44.2776 0.400738 43.7934C0.182153 43.3093 0.0485743 42.8373 -5.30796e-09 42.3774L2.64123 41.7419C2.66551 42.0324 2.7323 42.3168 2.84159 42.5952C2.96303 42.8615 3.13304 43.0975 3.35162 43.3033C3.57021 43.4969 3.84344 43.6543 4.17131 43.7753C4.49919 43.8963 4.88171 43.9568 5.31888 43.9568C5.88963 43.9568 6.33287 43.8358 6.6486 43.5937C6.97648 43.3396 7.14042 43.0128 7.14042 42.6134C7.14042 42.2866 7.01291 42.0143 6.75789 41.7964C6.51502 41.5664 6.18107 41.4091 5.75605 41.3244L3.98916 40.9976C2.8841 40.7918 2.0219 40.3501 1.40258 39.6723C0.78326 38.9945 0.473599 38.1775 0.473599 37.2214C0.473599 36.6162 0.595035 36.0594 0.837906 35.5511C1.09292 35.0428 1.43294 34.607 1.85797 34.2439C2.28299 33.8808 2.7748 33.5964 3.33341 33.3907C3.89201 33.1849 4.48098 33.082 5.1003 33.082C5.90177 33.082 6.58788 33.191 7.15863 33.4088C7.72938 33.6267 8.19691 33.9051 8.56121 34.2439C8.93766 34.5707 9.22304 34.9399 9.41733 35.3514C9.61163 35.7508 9.74521 36.1381 9.81807 36.5133L7.23149 37.2395ZM38.4594 39.1276C39.0058 39.1276 39.4491 38.9824 39.7891 38.6919C40.1291 38.4014 40.2991 38.002 40.2991 37.4937C40.2991 36.9732 40.1291 36.5678 39.7891 36.2773C39.4491 35.9868 39.0058 35.8416 38.4594 35.8416H36.7836V39.1276H38.4594ZM36.7654 41.5967V46.2262H33.8873V33.3544H38.7508C39.4066 33.3544 40.0016 33.4572 40.5359 33.663C41.0824 33.8687 41.5499 34.1532 41.9385 34.5163C42.3392 34.8794 42.6428 35.3151 42.8493 35.8234C43.0679 36.3318 43.1772 36.8825 43.1772 37.4755C43.1772 38.0807 43.0679 38.6374 42.8493 39.1458C42.6428 39.6541 42.3392 40.0898 41.9385 40.4529C41.5499 40.816 41.0824 41.1005 40.5359 41.3062C40.0016 41.4999 39.4066 41.5967 38.7508 41.5967H36.7654ZM73.6263 43.6119H68.6353L67.7063 46.2262H64.6826L69.5461 33.3544H72.8795L77.6883 46.2262H74.5553L73.6263 43.6119ZM69.5825 40.9976H72.7156L71.1673 36.5496L69.5825 40.9976ZM106.383 46.4985C105.448 46.4985 104.573 46.3412 103.76 46.0265C102.946 45.6997 102.236 45.2458 101.628 44.6649C101.033 44.0839 100.56 43.3819 100.208 42.5589C99.856 41.7359 99.6799 40.8221 99.6799 39.8175C99.6799 38.8129 99.856 37.8991 100.208 37.0761C100.572 36.241 101.058 35.5329 101.665 34.952C102.272 34.3589 102.976 33.899 103.778 33.5722C104.591 33.2454 105.448 33.082 106.346 33.082C107.318 33.082 108.156 33.2212 108.86 33.4996C109.564 33.778 110.159 34.135 110.645 34.5707C111.131 34.9944 111.507 35.4603 111.774 35.9687C112.054 36.477 112.248 36.9611 112.357 37.4211L109.643 38.2743C109.595 38.0565 109.498 37.8084 109.352 37.53C109.218 37.2516 109.024 36.9914 108.769 36.7493C108.514 36.4952 108.186 36.2894 107.785 36.1321C107.397 35.9626 106.917 35.8779 106.346 35.8779C105.909 35.8779 105.472 35.9566 105.035 36.1139C104.598 36.2713 104.203 36.5133 103.851 36.8401C103.499 37.1548 103.213 37.5603 102.995 38.0565C102.776 38.5527 102.667 39.1397 102.667 39.8175C102.667 40.4227 102.77 40.9613 102.976 41.4333C103.183 41.9053 103.456 42.3047 103.796 42.6315C104.148 42.9583 104.543 43.2064 104.98 43.3759C105.429 43.5453 105.897 43.6301 106.383 43.6301C106.941 43.6301 107.421 43.5514 107.822 43.394C108.222 43.2246 108.556 43.0188 108.824 42.7768C109.091 42.5226 109.297 42.2563 109.443 41.978C109.601 41.6996 109.71 41.4454 109.771 41.2154L112.521 41.9961C112.412 42.4439 112.218 42.9281 111.938 43.4485C111.671 43.9689 111.289 44.4591 110.791 44.9191C110.305 45.3669 109.698 45.7421 108.969 46.0447C108.241 46.3472 107.378 46.4985 106.383 46.4985ZM136.356 46.2262V33.3544H144.535V36.0594H139.234V38.5104H144.043V41.0339H139.234V43.503H144.553V46.2262H136.356ZM173.388 43.5211C173.886 43.5211 174.353 43.4485 174.79 43.3033C175.228 43.158 175.61 42.9341 175.938 42.6315C176.266 42.3289 176.521 41.9416 176.703 41.4696C176.897 40.9976 176.994 40.4408 176.994 39.7994C176.994 39.1579 176.897 38.6011 176.703 38.1291C176.521 37.6571 176.266 37.2698 175.938 36.9672C175.61 36.6525 175.228 36.4225 174.79 36.2773C174.353 36.1321 173.886 36.0594 173.388 36.0594H171.712V43.5211H173.388ZM168.834 46.2262V33.3544H173.515C174.487 33.3544 175.367 33.5056 176.157 33.8082C176.958 34.0987 177.644 34.5223 178.215 35.0791C178.786 35.6358 179.223 36.3136 179.526 37.1124C179.842 37.9112 180 38.8069 180 39.7994C180 40.7918 179.842 41.6875 179.526 42.4863C179.223 43.273 178.786 43.9447 178.215 44.5015C177.644 45.0582 176.958 45.4879 176.157 45.7905C175.355 46.081 174.469 46.2262 173.497 46.2262H168.834Z" fill="white"/>
</svg>
