<svg width="180" height="64" viewBox="0 0 180 64" fill="none" xmlns="http://www.w3.org/2000/svg">
<g opacity="0.3">
<path fill-rule="evenodd" clip-rule="evenodd" d="M150.053 60.8947C150.08 60.1627 150.093 59.4271 150.093 58.6884C150.093 26.2757 123.73 0 91.2098 0C58.6893 0 32.3262 26.2757 32.3262 58.6884C32.3262 59.4271 32.3399 60.1627 32.367 60.8947C33.5311 29.5044 59.4304 4.41266 91.2098 4.41266C122.989 4.41266 148.888 29.5044 150.053 60.8947Z" fill="black"/>
<path fill-rule="evenodd" clip-rule="evenodd" d="M150.053 63.8947C150.08 63.1627 150.093 62.4271 150.093 61.6884C150.093 29.2757 123.73 3 91.2098 3C58.6893 3 32.3262 29.2757 32.3262 61.6884C32.3262 62.4271 32.3399 63.1627 32.367 63.8947C33.5311 32.5044 59.4304 7.41266 91.2098 7.41266C122.989 7.41266 148.888 32.5044 150.053 63.8947Z" fill="#F7F7F7"/>
<path d="M7.23149 35.6282C7.20721 35.4829 7.15256 35.3196 7.06755 35.138C6.99469 34.9443 6.87326 34.7689 6.70325 34.6115C6.54538 34.4421 6.33287 34.3029 6.06571 34.1939C5.79855 34.0729 5.47068 34.0124 5.08208 34.0124C4.54776 34.0124 4.11667 34.1576 3.78879 34.4481C3.47306 34.7265 3.31519 35.0412 3.31519 35.3922C3.31519 35.7069 3.41234 35.9731 3.60664 36.191C3.81308 36.3967 4.14096 36.542 4.59027 36.6267L6.32073 36.9535C6.94005 37.0624 7.48044 37.244 7.94189 37.4981C8.40335 37.7402 8.79194 38.0307 9.10767 38.3696C9.42341 38.7085 9.6602 39.0897 9.81807 39.5133C9.97594 39.9249 10.0549 40.3606 10.0549 40.8205C10.0549 41.3288 9.95165 41.8251 9.74521 42.3092C9.53877 42.7933 9.22911 43.2291 8.81623 43.6164C8.41549 43.9916 7.9176 44.3002 7.32257 44.5423C6.72753 44.7722 6.0475 44.8872 5.28245 44.8872C4.38383 44.8872 3.61271 44.7601 2.9691 44.506C2.32549 44.2397 1.79118 43.9068 1.36615 43.5074C0.941126 43.108 0.619322 42.6663 0.400738 42.1821C0.182153 41.698 0.0485743 41.226 -5.30796e-09 40.766L2.64123 40.1306C2.66551 40.4211 2.7323 40.7055 2.84159 40.9839C2.96303 41.2502 3.13304 41.4862 3.35162 41.6919C3.57021 41.8856 3.84344 42.0429 4.17131 42.164C4.49919 42.285 4.88171 42.3455 5.31888 42.3455C5.88963 42.3455 6.33287 42.2245 6.6486 41.9824C6.97648 41.7282 7.14042 41.4015 7.14042 41.002C7.14042 40.6753 7.01291 40.4029 6.75789 40.1851C6.51502 39.9551 6.18107 39.7978 5.75605 39.713L3.98916 39.3863C2.8841 39.1805 2.0219 38.7387 1.40258 38.0609C0.78326 37.3832 0.473599 36.5662 0.473599 35.61C0.473599 35.0049 0.595035 34.4481 0.837906 33.9398C1.09292 33.4314 1.43294 32.9957 1.85797 32.6326C2.28299 32.2695 2.7748 31.9851 3.33341 31.7793C3.89201 31.5736 4.48098 31.4707 5.1003 31.4707C5.90177 31.4707 6.58788 31.5796 7.15863 31.7975C7.72938 32.0154 8.19691 32.2937 8.56121 32.6326C8.93766 32.9594 9.22304 33.3286 9.41733 33.7401C9.61163 34.1395 9.74521 34.5268 9.81807 34.902L7.23149 35.6282ZM38.4594 37.5163C39.0058 37.5163 39.4491 37.3711 39.7891 37.0806C40.1291 36.7901 40.2991 36.3907 40.2991 35.8824C40.2991 35.3619 40.1291 34.9565 39.7891 34.666C39.4491 34.3755 39.0058 34.2303 38.4594 34.2303H36.7836V37.5163H38.4594ZM36.7654 39.9854V44.6149H33.8873V31.743H38.7508C39.4066 31.743 40.0016 31.8459 40.5359 32.0517C41.0824 32.2574 41.5499 32.5418 41.9385 32.9049C42.3392 33.268 42.6428 33.7038 42.8493 34.2121C43.0679 34.7204 43.1772 35.2711 43.1772 35.8642C43.1772 36.4694 43.0679 37.0261 42.8493 37.5345C42.6428 38.0428 42.3392 38.4785 41.9385 38.8416C41.5499 39.2047 41.0824 39.4891 40.5359 39.6949C40.0016 39.8885 39.4066 39.9854 38.7508 39.9854H36.7654ZM73.6263 42.0006H68.6353L67.7063 44.6149H64.6826L69.5461 31.743H72.8795L77.6883 44.6149H74.5553L73.6263 42.0006ZM69.5825 39.3863H72.7156L71.1673 34.9383L69.5825 39.3863ZM106.383 44.8872C105.448 44.8872 104.573 44.7299 103.76 44.4152C102.946 44.0884 102.236 43.6345 101.628 43.0536C101.033 42.4726 100.56 41.7706 100.208 40.9476C99.856 40.1246 99.6799 39.2108 99.6799 38.2062C99.6799 37.2016 99.856 36.2878 100.208 35.4648C100.572 34.6297 101.058 33.9216 101.665 33.3407C102.272 32.7476 102.976 32.2877 103.778 31.9609C104.591 31.6341 105.448 31.4707 106.346 31.4707C107.318 31.4707 108.156 31.6099 108.86 31.8883C109.564 32.1666 110.159 32.5237 110.645 32.9594C111.131 33.383 111.507 33.849 111.774 34.3573C112.054 34.8657 112.248 35.3498 112.357 35.8097L109.643 36.663C109.595 36.4452 109.498 36.197 109.352 35.9187C109.218 35.6403 109.024 35.3801 108.769 35.138C108.514 34.8838 108.186 34.6781 107.785 34.5207C107.397 34.3513 106.917 34.2666 106.346 34.2666C105.909 34.2666 105.472 34.3452 105.035 34.5026C104.598 34.6599 104.203 34.902 103.851 35.2288C103.499 35.5435 103.213 35.9489 102.995 36.4452C102.776 36.9414 102.667 37.5284 102.667 38.2062C102.667 38.8114 102.77 39.3499 102.976 39.822C103.183 40.294 103.456 40.6934 103.796 41.0202C104.148 41.347 104.543 41.5951 104.98 41.7646C105.429 41.934 105.897 42.0187 106.383 42.0187C106.941 42.0187 107.421 41.9401 107.822 41.7827C108.222 41.6133 108.556 41.4075 108.824 41.1654C109.091 40.9113 109.297 40.645 109.443 40.3666C109.601 40.0883 109.71 39.8341 109.771 39.6041L112.521 40.3848C112.412 40.8326 112.218 41.3167 111.938 41.8372C111.671 42.3576 111.289 42.8478 110.791 43.3077C110.305 43.7555 109.698 44.1308 108.969 44.4333C108.241 44.7359 107.378 44.8872 106.383 44.8872ZM136.356 44.6149V31.743H144.535V34.4481H139.234V36.899H144.043V39.4226H139.234V41.8916H144.553V44.6149H136.356ZM173.388 41.9098C173.886 41.9098 174.353 41.8372 174.79 41.6919C175.228 41.5467 175.61 41.3228 175.938 41.0202C176.266 40.7176 176.521 40.3303 176.703 39.8583C176.897 39.3863 176.994 38.8295 176.994 38.188C176.994 37.5466 176.897 36.9898 176.703 36.5178C176.521 36.0457 176.266 35.6584 175.938 35.3559C175.61 35.0412 175.228 34.8112 174.79 34.666C174.353 34.5207 173.886 34.4481 173.388 34.4481H171.712V41.9098H173.388ZM168.834 44.6149V31.743H173.515C174.487 31.743 175.367 31.8943 176.157 32.1969C176.958 32.4874 177.644 32.911 178.215 33.4677C178.786 34.0245 179.223 34.7023 179.526 35.5011C179.842 36.2999 180 37.1956 180 38.188C180 39.1805 179.842 40.0761 179.526 40.875C179.223 41.6617 178.786 42.3334 178.215 42.8902C177.644 43.4469 176.958 43.8766 176.157 44.1792C175.355 44.4696 174.469 44.6149 173.497 44.6149H168.834Z" fill="white"/>
<path d="M7.23149 36.6282C7.20721 36.4829 7.15256 36.3196 7.06755 36.138C6.99469 35.9443 6.87326 35.7689 6.70325 35.6115C6.54538 35.4421 6.33287 35.3029 6.06571 35.1939C5.79855 35.0729 5.47068 35.0124 5.08208 35.0124C4.54776 35.0124 4.11667 35.1576 3.78879 35.4481C3.47306 35.7265 3.31519 36.0412 3.31519 36.3922C3.31519 36.7069 3.41234 36.9731 3.60664 37.191C3.81308 37.3967 4.14096 37.542 4.59027 37.6267L6.32073 37.9535C6.94005 38.0624 7.48044 38.244 7.94189 38.4981C8.40335 38.7402 8.79194 39.0307 9.10767 39.3696C9.42341 39.7085 9.6602 40.0897 9.81807 40.5133C9.97594 40.9249 10.0549 41.3606 10.0549 41.8205C10.0549 42.3288 9.95165 42.8251 9.74521 43.3092C9.53877 43.7933 9.22911 44.2291 8.81623 44.6164C8.41549 44.9916 7.9176 45.3002 7.32257 45.5423C6.72753 45.7722 6.0475 45.8872 5.28245 45.8872C4.38383 45.8872 3.61271 45.7601 2.9691 45.506C2.32549 45.2397 1.79118 44.9068 1.36615 44.5074C0.941126 44.108 0.619322 43.6663 0.400738 43.1821C0.182153 42.698 0.0485743 42.226 -5.30796e-09 41.766L2.64123 41.1306C2.66551 41.4211 2.7323 41.7055 2.84159 41.9839C2.96303 42.2502 3.13304 42.4862 3.35162 42.6919C3.57021 42.8856 3.84344 43.0429 4.17131 43.164C4.49919 43.285 4.88171 43.3455 5.31888 43.3455C5.88963 43.3455 6.33287 43.2245 6.6486 42.9824C6.97648 42.7282 7.14042 42.4015 7.14042 42.002C7.14042 41.6753 7.01291 41.4029 6.75789 41.1851C6.51502 40.9551 6.18107 40.7978 5.75605 40.713L3.98916 40.3863C2.8841 40.1805 2.0219 39.7387 1.40258 39.0609C0.78326 38.3832 0.473599 37.5662 0.473599 36.61C0.473599 36.0049 0.595035 35.4481 0.837906 34.9398C1.09292 34.4314 1.43294 33.9957 1.85797 33.6326C2.28299 33.2695 2.7748 32.9851 3.33341 32.7793C3.89201 32.5736 4.48098 32.4707 5.1003 32.4707C5.90177 32.4707 6.58788 32.5796 7.15863 32.7975C7.72938 33.0154 8.19691 33.2937 8.56121 33.6326C8.93766 33.9594 9.22304 34.3286 9.41733 34.7401C9.61163 35.1395 9.74521 35.5268 9.81807 35.902L7.23149 36.6282ZM38.4594 38.5163C39.0058 38.5163 39.4491 38.3711 39.7891 38.0806C40.1291 37.7901 40.2991 37.3907 40.2991 36.8824C40.2991 36.3619 40.1291 35.9565 39.7891 35.666C39.4491 35.3755 39.0058 35.2303 38.4594 35.2303H36.7836V38.5163H38.4594ZM36.7654 40.9854V45.6149H33.8873V32.743H38.7508C39.4066 32.743 40.0016 32.8459 40.5359 33.0517C41.0824 33.2574 41.5499 33.5418 41.9385 33.9049C42.3392 34.268 42.6428 34.7038 42.8493 35.2121C43.0679 35.7204 43.1772 36.2711 43.1772 36.8642C43.1772 37.4694 43.0679 38.0261 42.8493 38.5345C42.6428 39.0428 42.3392 39.4785 41.9385 39.8416C41.5499 40.2047 41.0824 40.4891 40.5359 40.6949C40.0016 40.8885 39.4066 40.9854 38.7508 40.9854H36.7654ZM73.6263 43.0006H68.6353L67.7063 45.6149H64.6826L69.5461 32.743H72.8795L77.6883 45.6149H74.5553L73.6263 43.0006ZM69.5825 40.3863H72.7156L71.1673 35.9383L69.5825 40.3863ZM106.383 45.8872C105.448 45.8872 104.573 45.7299 103.76 45.4152C102.946 45.0884 102.236 44.6345 101.628 44.0536C101.033 43.4726 100.56 42.7706 100.208 41.9476C99.856 41.1246 99.6799 40.2108 99.6799 39.2062C99.6799 38.2016 99.856 37.2878 100.208 36.4648C100.572 35.6297 101.058 34.9216 101.665 34.3407C102.272 33.7476 102.976 33.2877 103.778 32.9609C104.591 32.6341 105.448 32.4707 106.346 32.4707C107.318 32.4707 108.156 32.6099 108.86 32.8883C109.564 33.1666 110.159 33.5237 110.645 33.9594C111.131 34.383 111.507 34.849 111.774 35.3573C112.054 35.8657 112.248 36.3498 112.357 36.8097L109.643 37.663C109.595 37.4452 109.498 37.197 109.352 36.9187C109.218 36.6403 109.024 36.3801 108.769 36.138C108.514 35.8838 108.186 35.6781 107.785 35.5207C107.397 35.3513 106.917 35.2666 106.346 35.2666C105.909 35.2666 105.472 35.3452 105.035 35.5026C104.598 35.6599 104.203 35.902 103.851 36.2288C103.499 36.5435 103.213 36.9489 102.995 37.4452C102.776 37.9414 102.667 38.5284 102.667 39.2062C102.667 39.8114 102.77 40.3499 102.976 40.822C103.183 41.294 103.456 41.6934 103.796 42.0202C104.148 42.347 104.543 42.5951 104.98 42.7646C105.429 42.934 105.897 43.0187 106.383 43.0187C106.941 43.0187 107.421 42.9401 107.822 42.7827C108.222 42.6133 108.556 42.4075 108.824 42.1654C109.091 41.9113 109.297 41.645 109.443 41.3666C109.601 41.0883 109.71 40.8341 109.771 40.6041L112.521 41.3848C112.412 41.8326 112.218 42.3167 111.938 42.8372C111.671 43.3576 111.289 43.8478 110.791 44.3077C110.305 44.7555 109.698 45.1308 108.969 45.4333C108.241 45.7359 107.378 45.8872 106.383 45.8872ZM136.356 45.6149V32.743H144.535V35.4481H139.234V37.899H144.043V40.4226H139.234V42.8916H144.553V45.6149H136.356ZM173.388 42.9098C173.886 42.9098 174.353 42.8372 174.79 42.6919C175.228 42.5467 175.61 42.3228 175.938 42.0202C176.266 41.7176 176.521 41.3303 176.703 40.8583C176.897 40.3863 176.994 39.8295 176.994 39.188C176.994 38.5466 176.897 37.9898 176.703 37.5178C176.521 37.0457 176.266 36.6584 175.938 36.3559C175.61 36.0412 175.228 35.8112 174.79 35.666C174.353 35.5207 173.886 35.4481 173.388 35.4481H171.712V42.9098H173.388ZM168.834 45.6149V32.743H173.515C174.487 32.743 175.367 32.8943 176.157 33.1969C176.958 33.4874 177.644 33.911 178.215 34.4677C178.786 35.0245 179.223 35.7023 179.526 36.5011C179.842 37.2999 180 38.1956 180 39.188C180 40.1805 179.842 41.0761 179.526 41.875C179.223 42.6617 178.786 43.3334 178.215 43.8902C177.644 44.4469 176.958 44.8766 176.157 45.1792C175.355 45.4696 174.469 45.6149 173.497 45.6149H168.834Z" fill="black"/>
</g>
</svg>
